{
	"nodes":[{
		"name":"Cube",
		"mesh":0
	}],
	"asset":{
		"version":"2.0",
		"generator":"Created using the official Cinema 4D glTF Exporter 1.000x284978"
	},
	"materials":[{
		"pbrMetallicRoughness":{
			"baseColorFactor":[0.588235294117647,
			0.2745098039215686,
			0.9372549019607843,
			1.0],
			"metallicFactor":0.0,
			"roughnessFactor":0.5
		},
		"emissiveFactor":[0.0,
		0.0,
		0.0],
		"alphaMode":"OPAQUE",
		"doubleSided":true,
		"name":"Mat.3"
	}],
	"scenes":[{
		"nodes":[0]
	}],
	"meshes":[{
		"name":"Cube",
		"primitives":[{
			"attributes":{
				"POSITION":1,
				"NORMAL":2,
				"TEXCOORD_0":3
			},
			"indices":0,
			"material":0
		}]
	}],
	"accessors":[{
		"bufferView":0,
		"type":"SCALAR",
		"componentType":5123,
		"count":546,
		"byteOffset":0,
		"min":[0],
		"max":[193]
	},
	{
		"bufferView":1,
		"type":"VEC3",
		"componentType":5126,
		"count":194,
		"byteOffset":0,
		"min":[-25.0,
		-7.5,
		-25.0],
		"max":[25.0,
		7.5,
		25.0]
	},
	{
		"bufferView":1,
		"type":"VEC3",
		"componentType":5126,
		"count":194,
		"byteOffset":12,
		"min":[-0.9999996423721314,
		-0.9938579797744751,
		-0.9999016523361206],
		"max":[0.9997783899307251,
		0.9938579797744751,
		0.9999996423721314]
	},
	{
		"bufferView":1,
		"type":"VEC2",
		"componentType":5126,
		"count":194,
		"byteOffset":24,
		"min":[0.0,
		-0.23999997973442079],
		"max":[1.4800000190734864,
		1.2400000095367432]
	}],
	"bufferViews":[{
		"buffer":0,
		"byteOffset":0,
		"byteLength":1092,
		"target":34963
	},
	{
		"buffer":0,
		"byteOffset":1092,
		"byteLength":6208,
		"target":34962,
		"byteStride":32
	}],
	"buffers":[{
		"uri":"data:application/octet-stream;base64,",
		"byteLength":7300
	}]
}